<svg width="22" height="21" viewBox="0 0 22 21" fill="none" xmlns="http://www.w3.org/2000/svg">
<path d="M18.988 0.199951C15.556 0.199951 10.9544 2.55355 7.86323 6.59995H5.30003C3.44883 6.59995 2.38803 7.98235 1.65683 9.44315L0.676025 11.4H5.30003L7.70003 13.8L10.1 16.2V20.8224L12.0568 19.8432C13.5176 19.1136 14.9 18.0512 14.9 16.2V13.6368C18.9464 10.5456 21.3 5.94235 21.3 2.51195V0.199951H18.988ZM14.9 4.99995C15.3244 4.99995 15.7313 5.16852 16.0314 5.46858C16.3315 5.76864 16.5 6.1756 16.5 6.59995C16.5 7.0243 16.3315 7.43126 16.0314 7.73132C15.7313 8.03138 15.3244 8.19995 14.9 8.19995C14.4757 8.19995 14.0687 8.03138 13.7687 7.73132C13.4686 7.43126 13.3 7.0243 13.3 6.59995C13.3 6.1756 13.4686 5.76864 13.7687 5.46858C14.0687 5.16852 14.4757 4.99995 14.9 4.99995ZM4.50003 14.6L3.70003 15.4C2.54483 16.5552 2.10003 19.4 2.10003 19.4C2.10003 19.4 4.81683 19.0832 6.10003 17.8L6.90003 17L4.50003 14.6Z" fill="#0081A0"/>
</svg>
